<svg xmlns="http://www.w3.org/2000/svg" width="1200" height="630" viewBox="0 0 1200 630" role="img" aria-label="Butterfly's Call — Lepidoptera">
  <defs>
    <linearGradient id="sky" x1="0" y1="0" x2="0" y2="1">
      <stop offset="0%" stop-color="#0b1130"/><stop offset="60%" stop-color="#080b18"/><stop offset="100%" stop-color="#05060f"/>
    </linearGradient>
    <radialGradient id="glow" cx="50%" cy="45%" r="50%">
      <stop offset="0%" stop-color="#e0564f" stop-opacity=".45"/><stop offset="100%" stop-color="#e0564f" stop-opacity="0"/>
    </radialGradient>
  </defs>
  <rect width="1200" height="630" fill="url(#sky)"/>
  <ellipse cx="820" cy="300" rx="380" ry="260" fill="url(#glow)"/>
  <g fill="#e0564f" opacity=".9">
    <g transform="translate(830,180) scale(1.1)"><ellipse cx="-9" cy="-3" rx="10" ry="14" transform="rotate(-20 -9 -3)"/><ellipse cx="9" cy="-3" rx="10" ry="14" transform="rotate(20 9 -3)"/><ellipse cx="-7" cy="10" rx="7" ry="9"/><ellipse cx="7" cy="10" rx="7" ry="9"/></g>
    <g transform="translate(930,290) scale(.8)" fill="#e8a55c"><ellipse cx="-9" cy="-3" rx="10" ry="14" transform="rotate(-25 -9 -3)"/><ellipse cx="9" cy="-3" rx="10" ry="14" transform="rotate(25 9 -3)"/><ellipse cx="-7" cy="10" rx="7" ry="9"/><ellipse cx="7" cy="10" rx="7" ry="9"/></g>
    <g transform="translate(760,360) scale(.65)"><ellipse cx="-9" cy="-3" rx="10" ry="14" transform="rotate(-15 -9 -3)"/><ellipse cx="9" cy="-3" rx="10" ry="14" transform="rotate(15 9 -3)"/><ellipse cx="-7" cy="10" rx="7" ry="9"/><ellipse cx="7" cy="10" rx="7" ry="9"/></g>
    <g transform="translate(1010,150) scale(.5)" fill="#6b5aa6"><ellipse cx="-9" cy="-3" rx="10" ry="14" transform="rotate(-30 -9 -3)"/><ellipse cx="9" cy="-3" rx="10" ry="14" transform="rotate(30 9 -3)"/><ellipse cx="-7" cy="10" rx="7" ry="9"/><ellipse cx="7" cy="10" rx="7" ry="9"/></g>
    <g transform="translate(890,440) scale(.55)" fill="#e8a55c"><ellipse cx="-9" cy="-3" rx="10" ry="14" transform="rotate(-10 -9 -3)"/><ellipse cx="9" cy="-3" rx="10" ry="14" transform="rotate(10 9 -3)"/><ellipse cx="-7" cy="10" rx="7" ry="9"/><ellipse cx="7" cy="10" rx="7" ry="9"/></g>
  </g>
  <text x="80" y="128" font-family="Jost,sans-serif" font-size="21" letter-spacing="9" fill="#8d93ad">LEPIDOPTERA · FIELD SOCIETY</text>
  <line x1="80" y1="152" x2="380" y2="152" stroke="#e0564f" stroke-width="1.5"/>
  <text x="80" y="330" font-family="'Cormorant Garamond',serif" font-size="128" fill="#e9e4dc">Butterfly’s</text>
  <text x="80" y="452" font-family="'Cormorant Garamond',serif" font-style="italic" font-size="128" fill="#e0564f">Call</text>
  <text x="82" y="530" font-family="Jost,sans-serif" font-size="23" fill="#8d93ad">They arrive the moment you rest.</text>
</svg>
